<mxfile host="app.diagrams.net" agent="Mozilla/5.0 (Windows NT 10.0; Win64; x64; rv:138.0) Gecko/20100101 Firefox/138.0" version="27.1.4">
  <diagram id="Jlh94RciCW49kz9bUfxN" name="Page-2">
    <mxGraphModel dx="1188" dy="654" grid="1" gridSize="10" guides="1" tooltips="1" connect="1" arrows="1" fold="1" page="1" pageScale="1" pageWidth="850" pageHeight="1100" math="0" shadow="0">
      <root>
        <mxCell id="0" />
        <mxCell id="1" parent="0" />
        <mxCell id="wf9zCFZ75Df-MfzutYrz-2" value="&lt;div&gt;Torneo&lt;/div&gt;" style="whiteSpace=wrap;html=1;align=center;labelBackgroundColor=none;" parent="1" vertex="1">
          <mxGeometry x="750" y="462.5" width="100" height="40" as="geometry" />
        </mxCell>
        <mxCell id="wf9zCFZ75Df-MfzutYrz-3" value="Incontro" style="whiteSpace=wrap;html=1;align=center;labelBackgroundColor=none;" parent="1" vertex="1">
          <mxGeometry x="600" y="372.5" width="100" height="40" as="geometry" />
        </mxCell>
        <mxCell id="wf9zCFZ75Df-MfzutYrz-4" value="Organizzatore" style="whiteSpace=wrap;html=1;align=center;labelBackgroundColor=none;" parent="1" vertex="1">
          <mxGeometry x="110" y="500" width="100" height="40" as="geometry" />
        </mxCell>
        <mxCell id="wf9zCFZ75Df-MfzutYrz-5" value="Coach" style="whiteSpace=wrap;html=1;align=center;labelBackgroundColor=none;" parent="1" vertex="1">
          <mxGeometry x="110" y="330" width="100" height="40" as="geometry" />
        </mxCell>
        <mxCell id="wf9zCFZ75Df-MfzutYrz-6" style="edgeStyle=orthogonalEdgeStyle;rounded=0;orthogonalLoop=1;jettySize=auto;html=1;entryX=0;entryY=0.5;entryDx=0;entryDy=0;exitX=0;exitY=0.5;exitDx=0;exitDy=0;labelBackgroundColor=none;fontColor=default;" parent="1" source="wf9zCFZ75Df-MfzutYrz-7" target="wf9zCFZ75Df-MfzutYrz-7" edge="1">
          <mxGeometry relative="1" as="geometry" />
        </mxCell>
        <mxCell id="wf9zCFZ75Df-MfzutYrz-7" value="Atleta" style="whiteSpace=wrap;html=1;align=center;labelBackgroundColor=none;" parent="1" vertex="1">
          <mxGeometry x="110" y="415" width="100" height="40" as="geometry" />
        </mxCell>
        <mxCell id="wf9zCFZ75Df-MfzutYrz-8" value="Arbitro" style="whiteSpace=wrap;html=1;align=center;labelBackgroundColor=none;" parent="1" vertex="1">
          <mxGeometry x="110" y="245" width="100" height="40" as="geometry" />
        </mxCell>
        <mxCell id="wf9zCFZ75Df-MfzutYrz-9" value="Partecipazione" style="shape=rhombus;perimeter=rhombusPerimeter;whiteSpace=wrap;html=1;align=center;labelBackgroundColor=none;" parent="1" vertex="1">
          <mxGeometry x="450" y="362.5" width="120" height="60" as="geometry" />
        </mxCell>
        <mxCell id="wf9zCFZ75Df-MfzutYrz-10" value="" style="endArrow=none;html=1;rounded=0;fontColor=default;entryX=0;entryY=0.5;entryDx=0;entryDy=0;labelBackgroundColor=none;exitX=1;exitY=0.5;exitDx=0;exitDy=0;" parent="1" source="wf9zCFZ75Df-MfzutYrz-9" target="wf9zCFZ75Df-MfzutYrz-3" edge="1">
          <mxGeometry relative="1" as="geometry">
            <mxPoint x="590" y="352.5" as="sourcePoint" />
            <mxPoint x="740" y="392.5" as="targetPoint" />
          </mxGeometry>
        </mxCell>
        <mxCell id="wf9zCFZ75Df-MfzutYrz-11" value="Rientrare" style="shape=rhombus;perimeter=rhombusPerimeter;whiteSpace=wrap;html=1;align=center;labelBackgroundColor=none;" parent="1" vertex="1">
          <mxGeometry x="740" y="362.5" width="120" height="60" as="geometry" />
        </mxCell>
        <mxCell id="wf9zCFZ75Df-MfzutYrz-12" value="" style="endArrow=none;html=1;rounded=0;fontColor=default;exitX=0.5;exitY=0;exitDx=0;exitDy=0;entryX=0.5;entryY=1;entryDx=0;entryDy=0;labelBackgroundColor=none;" parent="1" source="wf9zCFZ75Df-MfzutYrz-2" target="wf9zCFZ75Df-MfzutYrz-11" edge="1">
          <mxGeometry relative="1" as="geometry">
            <mxPoint x="720" y="422.5" as="sourcePoint" />
            <mxPoint x="820" y="422.5" as="targetPoint" />
          </mxGeometry>
        </mxCell>
        <mxCell id="wf9zCFZ75Df-MfzutYrz-13" value="Ticket" style="whiteSpace=wrap;html=1;align=center;labelBackgroundColor=none;" parent="1" vertex="1">
          <mxGeometry x="300" y="165" width="100" height="40" as="geometry" />
        </mxCell>
        <mxCell id="wf9zCFZ75Df-MfzutYrz-14" value="Utente" style="whiteSpace=wrap;html=1;align=center;labelBackgroundColor=none;" parent="1" vertex="1">
          <mxGeometry x="300" y="372.5" width="100" height="40" as="geometry" />
        </mxCell>
        <mxCell id="wf9zCFZ75Df-MfzutYrz-15" value="" style="endArrow=none;html=1;rounded=0;fontColor=default;exitX=0;exitY=0.5;exitDx=0;exitDy=0;entryX=1;entryY=0.5;entryDx=0;entryDy=0;labelBackgroundColor=none;" parent="1" source="wf9zCFZ75Df-MfzutYrz-9" target="wf9zCFZ75Df-MfzutYrz-14" edge="1">
          <mxGeometry relative="1" as="geometry">
            <mxPoint x="410" y="382.5" as="sourcePoint" />
            <mxPoint x="410" y="342.5" as="targetPoint" />
          </mxGeometry>
        </mxCell>
        <mxCell id="wf9zCFZ75Df-MfzutYrz-16" value="" style="endArrow=none;html=1;rounded=0;fontColor=default;exitX=0;exitY=0.5;exitDx=0;exitDy=0;entryX=1;entryY=0.5;entryDx=0;entryDy=0;labelBackgroundColor=none;" parent="1" target="wf9zCFZ75Df-MfzutYrz-5" edge="1">
          <mxGeometry relative="1" as="geometry">
            <mxPoint x="300" y="392.5" as="sourcePoint" />
            <mxPoint x="270" y="322.5" as="targetPoint" />
          </mxGeometry>
        </mxCell>
        <mxCell id="wf9zCFZ75Df-MfzutYrz-17" value="" style="endArrow=none;html=1;rounded=0;fontColor=default;exitX=1;exitY=0.5;exitDx=0;exitDy=0;entryX=0;entryY=0.5;entryDx=0;entryDy=0;labelBackgroundColor=none;" parent="1" source="wf9zCFZ75Df-MfzutYrz-4" edge="1">
          <mxGeometry relative="1" as="geometry">
            <mxPoint x="250" y="512.5" as="sourcePoint" />
            <mxPoint x="300" y="392.5" as="targetPoint" />
          </mxGeometry>
        </mxCell>
        <mxCell id="wf9zCFZ75Df-MfzutYrz-18" value="" style="endArrow=none;html=1;rounded=0;fontColor=default;exitX=0;exitY=0.5;exitDx=0;exitDy=0;entryX=1;entryY=0.5;entryDx=0;entryDy=0;labelBackgroundColor=none;" parent="1" target="wf9zCFZ75Df-MfzutYrz-7" edge="1">
          <mxGeometry relative="1" as="geometry">
            <mxPoint x="300" y="392.5" as="sourcePoint" />
            <mxPoint x="340" y="282.5" as="targetPoint" />
          </mxGeometry>
        </mxCell>
        <mxCell id="wf9zCFZ75Df-MfzutYrz-19" value="" style="endArrow=none;html=1;rounded=0;fontColor=default;exitX=0.5;exitY=0;exitDx=0;exitDy=0;entryX=0.5;entryY=1;entryDx=0;entryDy=0;labelBackgroundColor=none;" parent="1" source="wf9zCFZ75Df-MfzutYrz-14" target="wf9zCFZ75Df-MfzutYrz-20" edge="1">
          <mxGeometry relative="1" as="geometry">
            <mxPoint x="380" y="652.5" as="sourcePoint" />
            <mxPoint x="380" y="612.5" as="targetPoint" />
          </mxGeometry>
        </mxCell>
        <mxCell id="wf9zCFZ75Df-MfzutYrz-20" value="Prenotazione" style="shape=rhombus;perimeter=rhombusPerimeter;whiteSpace=wrap;html=1;align=center;labelBackgroundColor=none;" parent="1" vertex="1">
          <mxGeometry x="290" y="240" width="120" height="60" as="geometry" />
        </mxCell>
        <mxCell id="wf9zCFZ75Df-MfzutYrz-21" value="" style="endArrow=none;html=1;rounded=0;fontColor=default;entryX=0.5;entryY=1;entryDx=0;entryDy=0;exitX=0.5;exitY=0;exitDx=0;exitDy=0;labelBackgroundColor=none;" parent="1" source="wf9zCFZ75Df-MfzutYrz-20" target="wf9zCFZ75Df-MfzutYrz-13" edge="1">
          <mxGeometry relative="1" as="geometry">
            <mxPoint x="360" y="215" as="sourcePoint" />
            <mxPoint x="460" y="155" as="targetPoint" />
          </mxGeometry>
        </mxCell>
        <mxCell id="wf9zCFZ75Df-MfzutYrz-22" value="" style="endArrow=none;html=1;rounded=0;fontColor=default;exitX=0;exitY=0.5;exitDx=0;exitDy=0;entryX=1;entryY=0.5;entryDx=0;entryDy=0;labelBackgroundColor=none;" parent="1" target="wf9zCFZ75Df-MfzutYrz-8" edge="1">
          <mxGeometry relative="1" as="geometry">
            <mxPoint x="300" y="392.5" as="sourcePoint" />
            <mxPoint x="260" y="262.5" as="targetPoint" />
          </mxGeometry>
        </mxCell>
        <mxCell id="wf9zCFZ75Df-MfzutYrz-23" value="1,N" style="text;html=1;align=center;verticalAlign=middle;resizable=0;points=[];autosize=1;strokeColor=none;fillColor=none;labelBackgroundColor=none;" parent="1" vertex="1">
          <mxGeometry x="795" y="440.5" width="40" height="30" as="geometry" />
        </mxCell>
        <mxCell id="wf9zCFZ75Df-MfzutYrz-24" value="" style="endArrow=none;html=1;rounded=0;fontColor=default;exitX=0;exitY=0.5;exitDx=0;exitDy=0;entryX=1;entryY=0.5;entryDx=0;entryDy=0;labelBackgroundColor=none;" parent="1" source="wf9zCFZ75Df-MfzutYrz-11" target="wf9zCFZ75Df-MfzutYrz-3" edge="1">
          <mxGeometry relative="1" as="geometry">
            <mxPoint x="740" y="392.5" as="sourcePoint" />
            <mxPoint x="710" y="392.5" as="targetPoint" />
          </mxGeometry>
        </mxCell>
        <mxCell id="wf9zCFZ75Df-MfzutYrz-25" value="1,1" style="text;html=1;align=center;verticalAlign=middle;resizable=0;points=[];autosize=1;strokeColor=none;fillColor=none;labelBackgroundColor=none;" parent="1" vertex="1">
          <mxGeometry x="700" y="370" width="40" height="30" as="geometry" />
        </mxCell>
        <mxCell id="wf9zCFZ75Df-MfzutYrz-26" value="1,1" style="text;html=1;align=center;verticalAlign=middle;resizable=0;points=[];autosize=1;strokeColor=none;fillColor=none;labelBackgroundColor=none;" parent="1" vertex="1">
          <mxGeometry x="345" y="205" width="40" height="30" as="geometry" />
        </mxCell>
        <mxCell id="wf9zCFZ75Df-MfzutYrz-27" value="1,1" style="text;html=1;align=center;verticalAlign=middle;resizable=0;points=[];autosize=1;strokeColor=none;fillColor=none;labelBackgroundColor=none;" parent="1" vertex="1">
          <mxGeometry x="345" y="287.5" width="40" height="30" as="geometry" />
        </mxCell>
        <mxCell id="wf9zCFZ75Df-MfzutYrz-28" value="1,N" style="text;html=1;align=center;verticalAlign=middle;resizable=0;points=[];autosize=1;strokeColor=none;fillColor=none;labelBackgroundColor=none;" parent="1" vertex="1">
          <mxGeometry x="390" y="370.5" width="40" height="30" as="geometry" />
        </mxCell>
        <mxCell id="wf9zCFZ75Df-MfzutYrz-29" value="0,2" style="text;html=1;align=center;verticalAlign=middle;resizable=0;points=[];autosize=1;strokeColor=none;fillColor=none;labelBackgroundColor=none;" parent="1" vertex="1">
          <mxGeometry x="565" y="370" width="40" height="30" as="geometry" />
        </mxCell>
        <mxCell id="wf9zCFZ75Df-MfzutYrz-30" value="Organizzazione" style="shape=rhombus;perimeter=rhombusPerimeter;whiteSpace=wrap;html=1;align=center;labelBackgroundColor=none;" parent="1" vertex="1">
          <mxGeometry x="455" y="455" width="120" height="60" as="geometry" />
        </mxCell>
        <mxCell id="wf9zCFZ75Df-MfzutYrz-31" value="" style="endArrow=none;html=1;rounded=0;exitX=1;exitY=1;exitDx=0;exitDy=0;entryX=0;entryY=0.5;entryDx=0;entryDy=0;labelBackgroundColor=none;fontColor=default;" parent="1" source="wf9zCFZ75Df-MfzutYrz-14" target="wf9zCFZ75Df-MfzutYrz-30" edge="1">
          <mxGeometry relative="1" as="geometry">
            <mxPoint x="380" y="452.5" as="sourcePoint" />
            <mxPoint x="540" y="452.5" as="targetPoint" />
          </mxGeometry>
        </mxCell>
        <mxCell id="wf9zCFZ75Df-MfzutYrz-32" value="" style="endArrow=none;html=1;rounded=0;entryX=1;entryY=0.5;entryDx=0;entryDy=0;exitX=0;exitY=0.5;exitDx=0;exitDy=0;labelBackgroundColor=none;fontColor=default;" parent="1" source="wf9zCFZ75Df-MfzutYrz-2" target="wf9zCFZ75Df-MfzutYrz-30" edge="1">
          <mxGeometry relative="1" as="geometry">
            <mxPoint x="380" y="452.5" as="sourcePoint" />
            <mxPoint x="540" y="452.5" as="targetPoint" />
          </mxGeometry>
        </mxCell>
        <mxCell id="wf9zCFZ75Df-MfzutYrz-33" value="1,N" style="text;html=1;align=center;verticalAlign=middle;resizable=0;points=[];autosize=1;strokeColor=none;fillColor=none;labelBackgroundColor=none;" parent="1" vertex="1">
          <mxGeometry x="400" y="400" width="40" height="30" as="geometry" />
        </mxCell>
        <mxCell id="wf9zCFZ75Df-MfzutYrz-34" value="1,N" style="text;html=1;align=center;verticalAlign=middle;resizable=0;points=[];autosize=1;strokeColor=none;fillColor=none;labelBackgroundColor=none;" parent="1" vertex="1">
          <mxGeometry x="710" y="455" width="40" height="30" as="geometry" />
        </mxCell>
        <mxCell id="wf9zCFZ75Df-MfzutYrz-35" value="Iscrizione" style="shape=rhombus;perimeter=rhombusPerimeter;whiteSpace=wrap;html=1;align=center;labelBackgroundColor=none;" parent="1" vertex="1">
          <mxGeometry x="300" y="436.25" width="90" height="42.5" as="geometry" />
        </mxCell>
        <mxCell id="wf9zCFZ75Df-MfzutYrz-36" value="" style="endArrow=classic;html=1;rounded=0;exitX=0.75;exitY=1;exitDx=0;exitDy=0;entryX=1;entryY=0.5;entryDx=0;entryDy=0;endFill=1;labelBackgroundColor=none;fontColor=default;" parent="1" source="wf9zCFZ75Df-MfzutYrz-14" target="wf9zCFZ75Df-MfzutYrz-35" edge="1">
          <mxGeometry relative="1" as="geometry">
            <mxPoint x="480" y="432.5" as="sourcePoint" />
            <mxPoint x="640" y="432.5" as="targetPoint" />
          </mxGeometry>
        </mxCell>
        <mxCell id="wf9zCFZ75Df-MfzutYrz-37" value="" style="endArrow=classic;html=1;rounded=0;entryX=0.25;entryY=1;entryDx=0;entryDy=0;endFill=1;exitX=0;exitY=0.5;exitDx=0;exitDy=0;labelBackgroundColor=none;fontColor=default;" parent="1" source="wf9zCFZ75Df-MfzutYrz-35" target="wf9zCFZ75Df-MfzutYrz-14" edge="1">
          <mxGeometry relative="1" as="geometry">
            <mxPoint x="270" y="522.5" as="sourcePoint" />
            <mxPoint x="480" y="422.5" as="targetPoint" />
          </mxGeometry>
        </mxCell>
        <mxCell id="wf9zCFZ75Df-MfzutYrz-38" value="" style="ellipse;whiteSpace=wrap;html=1;aspect=fixed;movable=1;resizable=1;rotatable=1;deletable=1;editable=1;locked=0;connectable=1;labelBackgroundColor=none;" parent="1" vertex="1">
          <mxGeometry x="430" y="165" width="10" height="10" as="geometry" />
        </mxCell>
        <mxCell id="wf9zCFZ75Df-MfzutYrz-39" value="" style="endArrow=none;html=1;rounded=0;exitX=1;exitY=0.25;exitDx=0;exitDy=0;entryX=0;entryY=0.5;entryDx=0;entryDy=0;labelBackgroundColor=none;fontColor=default;" parent="1" source="wf9zCFZ75Df-MfzutYrz-13" target="wf9zCFZ75Df-MfzutYrz-38" edge="1">
          <mxGeometry relative="1" as="geometry">
            <mxPoint x="455" y="207.5" as="sourcePoint" />
            <mxPoint x="615" y="207.5" as="targetPoint" />
          </mxGeometry>
        </mxCell>
        <mxCell id="wf9zCFZ75Df-MfzutYrz-40" value="" style="ellipse;whiteSpace=wrap;html=1;aspect=fixed;movable=1;resizable=1;rotatable=1;deletable=1;editable=1;locked=0;connectable=1;labelBackgroundColor=none;fillColor=#000000;" parent="1" vertex="1">
          <mxGeometry x="430" y="145" width="10" height="10" as="geometry" />
        </mxCell>
        <mxCell id="wf9zCFZ75Df-MfzutYrz-41" value="" style="endArrow=none;html=1;rounded=0;exitX=1;exitY=0;exitDx=0;exitDy=0;entryX=0;entryY=0.5;entryDx=0;entryDy=0;labelBackgroundColor=none;fontColor=default;" parent="1" source="wf9zCFZ75Df-MfzutYrz-13" target="wf9zCFZ75Df-MfzutYrz-40" edge="1">
          <mxGeometry relative="1" as="geometry">
            <mxPoint x="300" y="130" as="sourcePoint" />
            <mxPoint x="515" y="162.5" as="targetPoint" />
          </mxGeometry>
        </mxCell>
        <mxCell id="wf9zCFZ75Df-MfzutYrz-42" value="" style="ellipse;whiteSpace=wrap;html=1;aspect=fixed;movable=1;resizable=1;rotatable=1;deletable=1;editable=1;locked=0;connectable=1;labelBackgroundColor=none;" parent="1" vertex="1">
          <mxGeometry x="430" y="195" width="10" height="10" as="geometry" />
        </mxCell>
        <mxCell id="wf9zCFZ75Df-MfzutYrz-43" value="" style="endArrow=none;html=1;rounded=0;exitX=1;exitY=0.25;exitDx=0;exitDy=0;labelBackgroundColor=none;fontColor=default;" parent="1" target="wf9zCFZ75Df-MfzutYrz-42" edge="1">
          <mxGeometry relative="1" as="geometry">
            <mxPoint x="400" y="205" as="sourcePoint" />
            <mxPoint x="615" y="237.5" as="targetPoint" />
          </mxGeometry>
        </mxCell>
        <mxCell id="wf9zCFZ75Df-MfzutYrz-44" value="" style="ellipse;whiteSpace=wrap;html=1;aspect=fixed;movable=1;resizable=1;rotatable=1;deletable=1;editable=1;locked=0;connectable=1;labelBackgroundColor=none;" parent="1" vertex="1">
          <mxGeometry x="430" y="180" width="10" height="10" as="geometry" />
        </mxCell>
        <mxCell id="wf9zCFZ75Df-MfzutYrz-45" value="" style="endArrow=none;html=1;rounded=0;exitX=1;exitY=0.25;exitDx=0;exitDy=0;entryX=0;entryY=0.5;entryDx=0;entryDy=0;labelBackgroundColor=none;fontColor=default;" parent="1" target="wf9zCFZ75Df-MfzutYrz-44" edge="1">
          <mxGeometry relative="1" as="geometry">
            <mxPoint x="400" y="190" as="sourcePoint" />
            <mxPoint x="615" y="222.5" as="targetPoint" />
          </mxGeometry>
        </mxCell>
        <mxCell id="wf9zCFZ75Df-MfzutYrz-46" value="ID" style="text;html=1;align=center;verticalAlign=middle;resizable=0;points=[];autosize=1;strokeColor=none;fillColor=none;fontSize=9;labelBackgroundColor=none;" parent="1" vertex="1">
          <mxGeometry x="440" y="140" width="30" height="20" as="geometry" />
        </mxCell>
        <mxCell id="wf9zCFZ75Df-MfzutYrz-47" value="Costo" style="text;html=1;align=center;verticalAlign=middle;resizable=0;points=[];autosize=1;strokeColor=none;fillColor=none;fontSize=9;labelBackgroundColor=none;" parent="1" vertex="1">
          <mxGeometry x="430" y="160" width="50" height="20" as="geometry" />
        </mxCell>
        <mxCell id="wf9zCFZ75Df-MfzutYrz-48" value="Data Prenotazione" style="text;html=1;align=center;verticalAlign=middle;resizable=0;points=[];autosize=1;strokeColor=none;fillColor=none;fontSize=9;labelBackgroundColor=none;" parent="1" vertex="1">
          <mxGeometry x="430" y="175" width="100" height="20" as="geometry" />
        </mxCell>
        <mxCell id="wf9zCFZ75Df-MfzutYrz-49" value="Scadenza" style="text;html=1;align=center;verticalAlign=middle;resizable=0;points=[];autosize=1;strokeColor=none;fillColor=none;fontSize=9;labelBackgroundColor=none;" parent="1" vertex="1">
          <mxGeometry x="430" y="190" width="60" height="20" as="geometry" />
        </mxCell>
        <mxCell id="wf9zCFZ75Df-MfzutYrz-52" value="" style="ellipse;whiteSpace=wrap;html=1;aspect=fixed;movable=1;resizable=1;rotatable=1;deletable=1;editable=1;locked=0;connectable=1;labelBackgroundColor=none;" parent="1" vertex="1">
          <mxGeometry x="880" y="465" width="10" height="10" as="geometry" />
        </mxCell>
        <mxCell id="wf9zCFZ75Df-MfzutYrz-53" value="" style="endArrow=none;html=1;rounded=0;exitX=1;exitY=0.25;exitDx=0;exitDy=0;entryX=0;entryY=0.5;entryDx=0;entryDy=0;labelBackgroundColor=none;fontColor=default;" parent="1" target="wf9zCFZ75Df-MfzutYrz-52" edge="1">
          <mxGeometry relative="1" as="geometry">
            <mxPoint x="850" y="475" as="sourcePoint" />
            <mxPoint x="1065" y="507.5" as="targetPoint" />
          </mxGeometry>
        </mxCell>
        <mxCell id="wf9zCFZ75Df-MfzutYrz-54" value="" style="ellipse;whiteSpace=wrap;html=1;aspect=fixed;movable=1;resizable=1;rotatable=1;deletable=1;editable=1;locked=0;connectable=1;labelBackgroundColor=none;" parent="1" vertex="1">
          <mxGeometry x="880" y="477.5" width="10" height="10" as="geometry" />
        </mxCell>
        <mxCell id="wf9zCFZ75Df-MfzutYrz-55" value="" style="endArrow=none;html=1;rounded=0;exitX=1;exitY=0.25;exitDx=0;exitDy=0;entryX=0;entryY=0.5;entryDx=0;entryDy=0;labelBackgroundColor=none;fontColor=default;" parent="1" target="wf9zCFZ75Df-MfzutYrz-54" edge="1">
          <mxGeometry relative="1" as="geometry">
            <mxPoint x="850" y="487.5" as="sourcePoint" />
            <mxPoint x="1065" y="520" as="targetPoint" />
          </mxGeometry>
        </mxCell>
        <mxCell id="wf9zCFZ75Df-MfzutYrz-56" value="" style="ellipse;whiteSpace=wrap;html=1;aspect=fixed;movable=1;resizable=1;rotatable=1;deletable=1;editable=1;locked=0;connectable=1;labelBackgroundColor=none;" parent="1" vertex="1">
          <mxGeometry x="880" y="492.5" width="10" height="10" as="geometry" />
        </mxCell>
        <mxCell id="wf9zCFZ75Df-MfzutYrz-57" value="" style="endArrow=none;html=1;rounded=0;exitX=1;exitY=0.25;exitDx=0;exitDy=0;entryX=0;entryY=0.5;entryDx=0;entryDy=0;labelBackgroundColor=none;fontColor=default;" parent="1" target="wf9zCFZ75Df-MfzutYrz-56" edge="1">
          <mxGeometry relative="1" as="geometry">
            <mxPoint x="850" y="502.5" as="sourcePoint" />
            <mxPoint x="1065" y="535" as="targetPoint" />
          </mxGeometry>
        </mxCell>
        <mxCell id="wf9zCFZ75Df-MfzutYrz-58" value="" style="ellipse;whiteSpace=wrap;html=1;aspect=fixed;movable=1;resizable=1;rotatable=1;deletable=1;editable=1;locked=0;connectable=1;labelBackgroundColor=none;" parent="1" vertex="1">
          <mxGeometry x="745" y="520.5" width="10" height="10" as="geometry" />
        </mxCell>
        <mxCell id="wf9zCFZ75Df-MfzutYrz-59" value="" style="endArrow=none;html=1;rounded=0;exitX=1;exitY=0.25;exitDx=0;exitDy=0;entryX=0;entryY=0.5;entryDx=0;entryDy=0;labelBackgroundColor=none;fontColor=default;" parent="1" target="wf9zCFZ75Df-MfzutYrz-58" edge="1">
          <mxGeometry relative="1" as="geometry">
            <mxPoint x="760" y="503" as="sourcePoint" />
            <mxPoint x="975" y="535.5" as="targetPoint" />
          </mxGeometry>
        </mxCell>
        <mxCell id="wf9zCFZ75Df-MfzutYrz-60" value="" style="ellipse;whiteSpace=wrap;html=1;aspect=fixed;movable=1;resizable=1;rotatable=1;deletable=1;editable=1;locked=0;connectable=1;labelBackgroundColor=none;" parent="1" vertex="1">
          <mxGeometry x="770" y="520" width="10" height="10" as="geometry" />
        </mxCell>
        <mxCell id="wf9zCFZ75Df-MfzutYrz-61" value="" style="endArrow=none;html=1;rounded=0;exitX=1;exitY=0.25;exitDx=0;exitDy=0;entryX=0;entryY=0.5;entryDx=0;entryDy=0;labelBackgroundColor=none;fontColor=default;" parent="1" target="wf9zCFZ75Df-MfzutYrz-60" edge="1">
          <mxGeometry relative="1" as="geometry">
            <mxPoint x="785" y="502.5" as="sourcePoint" />
            <mxPoint x="1000" y="535" as="targetPoint" />
          </mxGeometry>
        </mxCell>
        <mxCell id="wf9zCFZ75Df-MfzutYrz-62" value="" style="ellipse;whiteSpace=wrap;html=1;aspect=fixed;movable=1;resizable=1;rotatable=1;deletable=1;editable=1;locked=0;connectable=1;labelBackgroundColor=none;" parent="1" vertex="1">
          <mxGeometry x="790" y="520" width="10" height="10" as="geometry" />
        </mxCell>
        <mxCell id="wf9zCFZ75Df-MfzutYrz-63" value="" style="endArrow=none;html=1;rounded=0;exitX=1;exitY=0.25;exitDx=0;exitDy=0;entryX=0;entryY=0.5;entryDx=0;entryDy=0;labelBackgroundColor=none;fontColor=default;" parent="1" target="wf9zCFZ75Df-MfzutYrz-62" edge="1">
          <mxGeometry relative="1" as="geometry">
            <mxPoint x="805" y="502.5" as="sourcePoint" />
            <mxPoint x="1020" y="535" as="targetPoint" />
          </mxGeometry>
        </mxCell>
        <mxCell id="wf9zCFZ75Df-MfzutYrz-65" value="Grado minimo" style="text;html=1;align=center;verticalAlign=middle;resizable=0;points=[];autosize=1;strokeColor=none;fillColor=none;fontSize=9;labelBackgroundColor=none;" parent="1" vertex="1">
          <mxGeometry x="880" y="460" width="80" height="20" as="geometry" />
        </mxCell>
        <mxCell id="wf9zCFZ75Df-MfzutYrz-66" value="A pagamento" style="text;html=1;align=center;verticalAlign=middle;resizable=0;points=[];autosize=1;strokeColor=none;fillColor=none;fontSize=9;labelBackgroundColor=none;" parent="1" vertex="1">
          <mxGeometry x="880" y="472.5" width="80" height="20" as="geometry" />
        </mxCell>
        <mxCell id="wf9zCFZ75Df-MfzutYrz-67" value="Luogo" style="text;html=1;align=center;verticalAlign=middle;resizable=0;points=[];autosize=1;strokeColor=none;fillColor=none;fontSize=9;labelBackgroundColor=none;" parent="1" vertex="1">
          <mxGeometry x="880" y="487.5" width="50" height="20" as="geometry" />
        </mxCell>
        <mxCell id="wf9zCFZ75Df-MfzutYrz-68" value="Data" style="text;html=1;align=center;verticalAlign=middle;resizable=0;points=[];autosize=1;strokeColor=none;fillColor=none;fontSize=9;rotation=-90;labelBackgroundColor=none;" parent="1" vertex="1">
          <mxGeometry x="720" y="530.5" width="40" height="20" as="geometry" />
        </mxCell>
        <mxCell id="wf9zCFZ75Df-MfzutYrz-69" value="Podio" style="text;html=1;align=center;verticalAlign=middle;resizable=0;points=[];autosize=1;strokeColor=none;fillColor=none;rotation=-90;fontSize=9;labelBackgroundColor=none;" parent="1" vertex="1">
          <mxGeometry x="740" y="530" width="50" height="20" as="geometry" />
        </mxCell>
        <mxCell id="wf9zCFZ75Df-MfzutYrz-70" value="Disciplina" style="text;html=1;align=center;verticalAlign=middle;resizable=0;points=[];autosize=1;strokeColor=none;fillColor=none;fontSize=9;rotation=-90;labelBackgroundColor=none;" parent="1" vertex="1">
          <mxGeometry x="760" y="540" width="60" height="20" as="geometry" />
        </mxCell>
        <mxCell id="wf9zCFZ75Df-MfzutYrz-71" value="" style="ellipse;whiteSpace=wrap;html=1;aspect=fixed;movable=1;resizable=1;rotatable=1;deletable=1;editable=1;locked=0;connectable=1;labelBackgroundColor=none;" parent="1" vertex="1">
          <mxGeometry x="600" y="340" width="10" height="10" as="geometry" />
        </mxCell>
        <mxCell id="wf9zCFZ75Df-MfzutYrz-72" value="" style="endArrow=none;html=1;rounded=0;exitX=0;exitY=0;exitDx=0;exitDy=0;entryX=0;entryY=0.5;entryDx=0;entryDy=0;labelBackgroundColor=none;fontColor=default;" parent="1" source="wf9zCFZ75Df-MfzutYrz-3" target="wf9zCFZ75Df-MfzutYrz-71" edge="1">
          <mxGeometry relative="1" as="geometry">
            <mxPoint x="615" y="322.5" as="sourcePoint" />
            <mxPoint x="830" y="355" as="targetPoint" />
          </mxGeometry>
        </mxCell>
        <mxCell id="wf9zCFZ75Df-MfzutYrz-73" value="" style="ellipse;whiteSpace=wrap;html=1;aspect=fixed;movable=1;resizable=1;rotatable=1;deletable=1;editable=1;locked=0;connectable=1;labelBackgroundColor=none;" parent="1" vertex="1">
          <mxGeometry x="620" y="340" width="10" height="10" as="geometry" />
        </mxCell>
        <mxCell id="wf9zCFZ75Df-MfzutYrz-74" value="" style="endArrow=none;html=1;rounded=0;exitX=0;exitY=0;exitDx=0;exitDy=0;entryX=0;entryY=0.5;entryDx=0;entryDy=0;labelBackgroundColor=none;fontColor=default;" parent="1" target="wf9zCFZ75Df-MfzutYrz-73" edge="1">
          <mxGeometry relative="1" as="geometry">
            <mxPoint x="620" y="372.5" as="sourcePoint" />
            <mxPoint x="850" y="355" as="targetPoint" />
          </mxGeometry>
        </mxCell>
        <mxCell id="wf9zCFZ75Df-MfzutYrz-75" value="" style="ellipse;whiteSpace=wrap;html=1;aspect=fixed;movable=1;resizable=1;rotatable=1;deletable=1;editable=1;locked=0;connectable=1;labelBackgroundColor=none;fillColor=#000000;" parent="1" vertex="1">
          <mxGeometry x="640" y="340" width="10" height="10" as="geometry" />
        </mxCell>
        <mxCell id="wf9zCFZ75Df-MfzutYrz-76" value="" style="endArrow=none;html=1;rounded=0;exitX=0;exitY=0;exitDx=0;exitDy=0;entryX=0;entryY=0.5;entryDx=0;entryDy=0;labelBackgroundColor=none;fontColor=default;" parent="1" target="wf9zCFZ75Df-MfzutYrz-75" edge="1">
          <mxGeometry relative="1" as="geometry">
            <mxPoint x="640" y="372.5" as="sourcePoint" />
            <mxPoint x="870" y="355" as="targetPoint" />
          </mxGeometry>
        </mxCell>
        <mxCell id="wf9zCFZ75Df-MfzutYrz-77" value="" style="ellipse;whiteSpace=wrap;html=1;aspect=fixed;movable=1;resizable=1;rotatable=1;deletable=1;editable=1;locked=0;connectable=1;labelBackgroundColor=none;" parent="1" vertex="1">
          <mxGeometry x="660" y="340" width="10" height="10" as="geometry" />
        </mxCell>
        <mxCell id="wf9zCFZ75Df-MfzutYrz-78" value="" style="endArrow=none;html=1;rounded=0;exitX=0;exitY=0;exitDx=0;exitDy=0;entryX=0;entryY=0.5;entryDx=0;entryDy=0;labelBackgroundColor=none;fontColor=default;" parent="1" target="wf9zCFZ75Df-MfzutYrz-77" edge="1">
          <mxGeometry relative="1" as="geometry">
            <mxPoint x="660" y="372.5" as="sourcePoint" />
            <mxPoint x="890" y="355" as="targetPoint" />
          </mxGeometry>
        </mxCell>
        <mxCell id="wf9zCFZ75Df-MfzutYrz-79" value="" style="ellipse;whiteSpace=wrap;html=1;aspect=fixed;movable=1;resizable=1;rotatable=1;deletable=1;editable=1;locked=0;connectable=1;labelBackgroundColor=none;" parent="1" vertex="1">
          <mxGeometry x="680" y="340" width="10" height="10" as="geometry" />
        </mxCell>
        <mxCell id="wf9zCFZ75Df-MfzutYrz-80" value="" style="endArrow=none;html=1;rounded=0;exitX=0;exitY=0;exitDx=0;exitDy=0;entryX=0;entryY=0.5;entryDx=0;entryDy=0;labelBackgroundColor=none;fontColor=default;" parent="1" target="wf9zCFZ75Df-MfzutYrz-79" edge="1">
          <mxGeometry relative="1" as="geometry">
            <mxPoint x="680" y="372.5" as="sourcePoint" />
            <mxPoint x="910" y="355" as="targetPoint" />
          </mxGeometry>
        </mxCell>
        <mxCell id="wf9zCFZ75Df-MfzutYrz-81" value="" style="ellipse;whiteSpace=wrap;html=1;aspect=fixed;movable=1;resizable=1;rotatable=1;deletable=1;editable=1;locked=0;connectable=1;labelBackgroundColor=none;" parent="1" vertex="1">
          <mxGeometry x="600" y="430" width="10" height="10" as="geometry" />
        </mxCell>
        <mxCell id="wf9zCFZ75Df-MfzutYrz-82" value="" style="endArrow=none;html=1;rounded=0;exitX=0;exitY=1;exitDx=0;exitDy=0;entryX=0;entryY=0.5;entryDx=0;entryDy=0;labelBackgroundColor=none;fontColor=default;" parent="1" source="wf9zCFZ75Df-MfzutYrz-3" target="wf9zCFZ75Df-MfzutYrz-81" edge="1">
          <mxGeometry relative="1" as="geometry">
            <mxPoint x="590" y="455" as="sourcePoint" />
            <mxPoint x="820" y="437.5" as="targetPoint" />
          </mxGeometry>
        </mxCell>
        <mxCell id="wf9zCFZ75Df-MfzutYrz-83" value="" style="ellipse;whiteSpace=wrap;html=1;aspect=fixed;movable=1;resizable=1;rotatable=1;deletable=1;editable=1;locked=0;connectable=1;labelBackgroundColor=none;" parent="1" vertex="1">
          <mxGeometry x="650" y="430" width="10" height="10" as="geometry" />
        </mxCell>
        <mxCell id="wf9zCFZ75Df-MfzutYrz-84" value="" style="endArrow=none;html=1;rounded=0;exitX=0.5;exitY=1;exitDx=0;exitDy=0;entryX=0;entryY=0.5;entryDx=0;entryDy=0;labelBackgroundColor=none;fontColor=default;" parent="1" source="wf9zCFZ75Df-MfzutYrz-3" target="wf9zCFZ75Df-MfzutYrz-83" edge="1">
          <mxGeometry relative="1" as="geometry">
            <mxPoint x="660" y="465" as="sourcePoint" />
            <mxPoint x="890" y="447.5" as="targetPoint" />
          </mxGeometry>
        </mxCell>
        <mxCell id="wf9zCFZ75Df-MfzutYrz-85" value="Angolo Blu" style="text;html=1;align=center;verticalAlign=middle;resizable=0;points=[];autosize=1;strokeColor=none;fillColor=none;fontSize=9;rotation=-90;labelBackgroundColor=none;" parent="1" vertex="1">
          <mxGeometry x="570" y="305.5" width="70" height="20" as="geometry" />
        </mxCell>
        <mxCell id="wf9zCFZ75Df-MfzutYrz-86" value="Angolo Rosso" style="text;html=1;align=center;verticalAlign=middle;resizable=0;points=[];autosize=1;strokeColor=none;fillColor=none;fontSize=9;rotation=-90;labelBackgroundColor=none;" parent="1" vertex="1">
          <mxGeometry x="585" y="297.5" width="80" height="20" as="geometry" />
        </mxCell>
        <mxCell id="wf9zCFZ75Df-MfzutYrz-87" value="ID_incontro" style="text;html=1;align=center;verticalAlign=middle;resizable=0;points=[];autosize=1;strokeColor=none;fillColor=none;fontSize=9;rotation=-90;labelBackgroundColor=none;" parent="1" vertex="1">
          <mxGeometry x="610" y="305.5" width="70" height="20" as="geometry" />
        </mxCell>
        <mxCell id="wf9zCFZ75Df-MfzutYrz-88" value="" style="ellipse;whiteSpace=wrap;html=1;aspect=fixed;movable=1;resizable=1;rotatable=1;deletable=1;editable=1;locked=0;connectable=1;labelBackgroundColor=none;fillColor=#000000;" parent="1" vertex="1">
          <mxGeometry x="830" y="522.5" width="10" height="10" as="geometry" />
        </mxCell>
        <mxCell id="wf9zCFZ75Df-MfzutYrz-89" value="" style="endArrow=none;html=1;rounded=0;exitX=0.75;exitY=1;exitDx=0;exitDy=0;entryX=0;entryY=0.5;entryDx=0;entryDy=0;labelBackgroundColor=none;fontColor=default;" parent="1" source="wf9zCFZ75Df-MfzutYrz-2" target="wf9zCFZ75Df-MfzutYrz-88" edge="1">
          <mxGeometry relative="1" as="geometry">
            <mxPoint x="830" y="555" as="sourcePoint" />
            <mxPoint x="1060" y="537.5" as="targetPoint" />
          </mxGeometry>
        </mxCell>
        <mxCell id="wf9zCFZ75Df-MfzutYrz-90" value="ID_torneo" style="text;html=1;align=center;verticalAlign=middle;resizable=0;points=[];autosize=1;strokeColor=none;fillColor=none;fontSize=9;labelBackgroundColor=none;" parent="1" vertex="1">
          <mxGeometry x="830" y="517.5" width="60" height="20" as="geometry" />
        </mxCell>
        <mxCell id="wf9zCFZ75Df-MfzutYrz-91" value="Esito" style="text;html=1;align=center;verticalAlign=middle;resizable=0;points=[];autosize=1;strokeColor=none;fillColor=none;fontSize=9;rotation=-90;labelBackgroundColor=none;" parent="1" vertex="1">
          <mxGeometry x="645" y="317.5" width="40" height="20" as="geometry" />
        </mxCell>
        <mxCell id="wf9zCFZ75Df-MfzutYrz-92" value="Ora" style="text;html=1;align=center;verticalAlign=middle;resizable=0;points=[];autosize=1;strokeColor=none;fillColor=none;rotation=-90;fontSize=9;labelBackgroundColor=none;" parent="1" vertex="1">
          <mxGeometry x="665" y="320" width="40" height="20" as="geometry" />
        </mxCell>
        <mxCell id="wf9zCFZ75Df-MfzutYrz-93" value="Categoria" style="text;html=1;align=center;verticalAlign=middle;resizable=0;points=[];autosize=1;strokeColor=none;fillColor=none;fontSize=9;rotation=-90;labelBackgroundColor=none;" parent="1" vertex="1">
          <mxGeometry x="575" y="452.5" width="60" height="20" as="geometry" />
        </mxCell>
        <mxCell id="wf9zCFZ75Df-MfzutYrz-94" value="CoachAngoloR" style="text;html=1;align=center;verticalAlign=middle;resizable=0;points=[];autosize=1;strokeColor=none;fillColor=none;fontSize=9;rotation=0;labelBackgroundColor=none;" parent="1" vertex="1">
          <mxGeometry x="650" y="425" width="80" height="20" as="geometry" />
        </mxCell>
        <mxCell id="wf9zCFZ75Df-MfzutYrz-95" value="Nome" style="text;html=1;align=center;verticalAlign=middle;resizable=0;points=[];autosize=1;strokeColor=none;fillColor=none;fontSize=9;labelBackgroundColor=none;" parent="1" vertex="1">
          <mxGeometry x="270" y="325.5" width="50" height="20" as="geometry" />
        </mxCell>
        <mxCell id="wf9zCFZ75Df-MfzutYrz-96" value="Cognome" style="text;html=1;align=center;verticalAlign=middle;resizable=0;points=[];autosize=1;strokeColor=none;fillColor=none;fontSize=9;labelBackgroundColor=none;" parent="1" vertex="1">
          <mxGeometry x="350" y="322.5" width="60" height="20" as="geometry" />
        </mxCell>
        <mxCell id="wf9zCFZ75Df-MfzutYrz-97" value="Email" style="text;html=1;align=center;verticalAlign=middle;resizable=0;points=[];autosize=1;strokeColor=none;fillColor=none;fontSize=9;labelBackgroundColor=none;" parent="1" vertex="1">
          <mxGeometry x="310" y="325.5" width="50" height="20" as="geometry" />
        </mxCell>
        <mxCell id="wf9zCFZ75Df-MfzutYrz-98" value="" style="ellipse;whiteSpace=wrap;html=1;aspect=fixed;movable=1;resizable=1;rotatable=1;deletable=1;editable=1;locked=0;connectable=1;labelBackgroundColor=none;" parent="1" vertex="1">
          <mxGeometry x="300" y="342.5" width="10" height="10" as="geometry" />
        </mxCell>
        <mxCell id="wf9zCFZ75Df-MfzutYrz-99" value="" style="endArrow=none;html=1;rounded=0;exitX=0;exitY=0;exitDx=0;exitDy=0;entryX=0;entryY=0.5;entryDx=0;entryDy=0;labelBackgroundColor=none;fontColor=default;" parent="1" target="wf9zCFZ75Df-MfzutYrz-98" edge="1">
          <mxGeometry relative="1" as="geometry">
            <mxPoint x="300" y="375" as="sourcePoint" />
            <mxPoint x="530" y="357.5" as="targetPoint" />
          </mxGeometry>
        </mxCell>
        <mxCell id="wf9zCFZ75Df-MfzutYrz-100" value="" style="ellipse;whiteSpace=wrap;html=1;aspect=fixed;movable=1;resizable=1;rotatable=1;deletable=1;editable=1;locked=0;connectable=1;labelBackgroundColor=none;" parent="1" vertex="1">
          <mxGeometry x="330" y="342.5" width="10" height="10" as="geometry" />
        </mxCell>
        <mxCell id="wf9zCFZ75Df-MfzutYrz-101" value="" style="endArrow=none;html=1;rounded=0;exitX=0;exitY=0;exitDx=0;exitDy=0;entryX=0;entryY=0.5;entryDx=0;entryDy=0;labelBackgroundColor=none;fontColor=default;" parent="1" target="wf9zCFZ75Df-MfzutYrz-100" edge="1">
          <mxGeometry relative="1" as="geometry">
            <mxPoint x="330" y="372.5" as="sourcePoint" />
            <mxPoint x="560" y="355" as="targetPoint" />
          </mxGeometry>
        </mxCell>
        <mxCell id="wf9zCFZ75Df-MfzutYrz-102" value="" style="ellipse;whiteSpace=wrap;html=1;aspect=fixed;movable=1;resizable=1;rotatable=1;deletable=1;editable=1;locked=0;connectable=1;labelBackgroundColor=none;" parent="1" vertex="1">
          <mxGeometry x="375" y="342.5" width="10" height="10" as="geometry" />
        </mxCell>
        <mxCell id="wf9zCFZ75Df-MfzutYrz-103" value="" style="endArrow=none;html=1;rounded=0;exitX=0;exitY=0;exitDx=0;exitDy=0;entryX=0;entryY=0.5;entryDx=0;entryDy=0;labelBackgroundColor=none;fontColor=default;" parent="1" target="wf9zCFZ75Df-MfzutYrz-102" edge="1">
          <mxGeometry relative="1" as="geometry">
            <mxPoint x="375" y="372.5" as="sourcePoint" />
            <mxPoint x="605" y="355" as="targetPoint" />
          </mxGeometry>
        </mxCell>
        <mxCell id="wf9zCFZ75Df-MfzutYrz-104" value="Federazione" style="text;html=1;align=center;verticalAlign=middle;resizable=0;points=[];autosize=1;strokeColor=none;fillColor=none;fontSize=9;labelBackgroundColor=none;" parent="1" vertex="1">
          <mxGeometry x="70" y="570" width="70" height="20" as="geometry" />
        </mxCell>
        <mxCell id="wf9zCFZ75Df-MfzutYrz-105" value="" style="ellipse;whiteSpace=wrap;html=1;aspect=fixed;movable=1;resizable=1;rotatable=1;deletable=1;editable=1;locked=0;connectable=1;labelBackgroundColor=none;" parent="1" vertex="1">
          <mxGeometry x="110" y="560" width="10" height="10" as="geometry" />
        </mxCell>
        <mxCell id="wf9zCFZ75Df-MfzutYrz-106" value="" style="endArrow=none;html=1;rounded=0;exitX=0;exitY=1;exitDx=0;exitDy=0;entryX=0;entryY=0.5;entryDx=0;entryDy=0;labelBackgroundColor=none;fontColor=default;" parent="1" source="wf9zCFZ75Df-MfzutYrz-4" target="wf9zCFZ75Df-MfzutYrz-105" edge="1">
          <mxGeometry relative="1" as="geometry">
            <mxPoint x="120" y="655" as="sourcePoint" />
            <mxPoint x="350" y="637.5" as="targetPoint" />
          </mxGeometry>
        </mxCell>
        <mxCell id="wf9zCFZ75Df-MfzutYrz-107" value="" style="ellipse;whiteSpace=wrap;html=1;aspect=fixed;movable=1;resizable=1;rotatable=1;deletable=1;editable=1;locked=0;connectable=1;labelBackgroundColor=none;fillColor=light-dark(#000000,#FFFFFF);" parent="1" vertex="1">
          <mxGeometry x="420" y="335.5" width="10" height="10" as="geometry" />
        </mxCell>
        <mxCell id="wf9zCFZ75Df-MfzutYrz-108" value="" style="endArrow=none;html=1;rounded=0;exitX=0;exitY=0;exitDx=0;exitDy=0;entryX=0;entryY=0.5;entryDx=0;entryDy=0;labelBackgroundColor=none;fontColor=default;" parent="1" target="wf9zCFZ75Df-MfzutYrz-107" edge="1">
          <mxGeometry relative="1" as="geometry">
            <mxPoint x="400" y="375" as="sourcePoint" />
            <mxPoint x="630" y="357.5" as="targetPoint" />
          </mxGeometry>
        </mxCell>
        <mxCell id="wf9zCFZ75Df-MfzutYrz-109" value="Tessera" style="text;html=1;align=center;verticalAlign=middle;resizable=0;points=[];autosize=1;strokeColor=none;fillColor=none;fontSize=9;labelBackgroundColor=none;" parent="1" vertex="1">
          <mxGeometry x="400" y="320" width="60" height="20" as="geometry" />
        </mxCell>
        <mxCell id="wf9zCFZ75Df-MfzutYrz-110" value="Palestra" style="text;html=1;align=center;verticalAlign=middle;resizable=0;points=[];autosize=1;strokeColor=none;fillColor=none;fontSize=9;labelBackgroundColor=none;" parent="1" vertex="1">
          <mxGeometry x="30" y="330" width="60" height="20" as="geometry" />
        </mxCell>
        <mxCell id="wf9zCFZ75Df-MfzutYrz-111" value="Grado" style="text;html=1;align=center;verticalAlign=middle;resizable=0;points=[];autosize=1;strokeColor=none;fillColor=none;fontSize=9;labelBackgroundColor=none;" parent="1" vertex="1">
          <mxGeometry x="40" y="345" width="50" height="20" as="geometry" />
        </mxCell>
        <mxCell id="wf9zCFZ75Df-MfzutYrz-112" value="" style="ellipse;whiteSpace=wrap;html=1;aspect=fixed;movable=1;resizable=1;rotatable=1;deletable=1;editable=1;locked=0;connectable=1;labelBackgroundColor=none;" parent="1" vertex="1">
          <mxGeometry x="80" y="335" width="10" height="10" as="geometry" />
        </mxCell>
        <mxCell id="wf9zCFZ75Df-MfzutYrz-113" value="" style="endArrow=none;html=1;rounded=0;exitX=0;exitY=0.25;exitDx=0;exitDy=0;entryX=0;entryY=0.5;entryDx=0;entryDy=0;labelBackgroundColor=none;fontColor=default;" parent="1" source="wf9zCFZ75Df-MfzutYrz-5" target="wf9zCFZ75Df-MfzutYrz-112" edge="1">
          <mxGeometry relative="1" as="geometry">
            <mxPoint x="120" y="335" as="sourcePoint" />
            <mxPoint x="350" y="317.5" as="targetPoint" />
          </mxGeometry>
        </mxCell>
        <mxCell id="wf9zCFZ75Df-MfzutYrz-114" value="" style="ellipse;whiteSpace=wrap;html=1;aspect=fixed;movable=1;resizable=1;rotatable=1;deletable=1;editable=1;locked=0;connectable=1;labelBackgroundColor=none;" parent="1" vertex="1">
          <mxGeometry x="80" y="350" width="10" height="10" as="geometry" />
        </mxCell>
        <mxCell id="wf9zCFZ75Df-MfzutYrz-115" value="" style="endArrow=none;html=1;rounded=0;exitX=0;exitY=0.75;exitDx=0;exitDy=0;entryX=0;entryY=0.5;entryDx=0;entryDy=0;labelBackgroundColor=none;fontColor=default;" parent="1" target="wf9zCFZ75Df-MfzutYrz-114" edge="1">
          <mxGeometry relative="1" as="geometry">
            <mxPoint x="110" y="355" as="sourcePoint" />
            <mxPoint x="320" y="382.5" as="targetPoint" />
          </mxGeometry>
        </mxCell>
        <mxCell id="wf9zCFZ75Df-MfzutYrz-116" value="Palestra" style="text;html=1;align=center;verticalAlign=middle;resizable=0;points=[];autosize=1;strokeColor=none;fillColor=none;fontSize=9;labelBackgroundColor=none;" parent="1" vertex="1">
          <mxGeometry x="40" y="400.5" width="60" height="20" as="geometry" />
        </mxCell>
        <mxCell id="wf9zCFZ75Df-MfzutYrz-117" value="" style="ellipse;whiteSpace=wrap;html=1;aspect=fixed;movable=1;resizable=1;rotatable=1;deletable=1;editable=1;locked=0;connectable=1;" parent="1" vertex="1">
          <mxGeometry x="90" y="412.5" width="10" height="10" as="geometry" />
        </mxCell>
        <mxCell id="wf9zCFZ75Df-MfzutYrz-118" value="" style="endArrow=none;html=1;rounded=0;exitX=0;exitY=0.25;exitDx=0;exitDy=0;entryX=0;entryY=0.5;entryDx=0;entryDy=0;" parent="1" source="wf9zCFZ75Df-MfzutYrz-7" target="wf9zCFZ75Df-MfzutYrz-117" edge="1">
          <mxGeometry relative="1" as="geometry">
            <mxPoint x="20" y="485" as="sourcePoint" />
            <mxPoint x="250" y="467.5" as="targetPoint" />
          </mxGeometry>
        </mxCell>
        <mxCell id="wf9zCFZ75Df-MfzutYrz-119" value="Cintura" style="text;html=1;align=center;verticalAlign=middle;resizable=0;points=[];autosize=1;strokeColor=none;fillColor=none;fontSize=9;" parent="1" vertex="1">
          <mxGeometry x="45" y="425" width="50" height="20" as="geometry" />
        </mxCell>
        <mxCell id="wf9zCFZ75Df-MfzutYrz-120" value="" style="ellipse;whiteSpace=wrap;html=1;aspect=fixed;movable=1;resizable=1;rotatable=1;deletable=1;editable=1;locked=0;connectable=1;" parent="1" vertex="1">
          <mxGeometry x="90" y="432.5" width="10" height="10" as="geometry" />
        </mxCell>
        <mxCell id="wf9zCFZ75Df-MfzutYrz-121" value="" style="endArrow=none;html=1;rounded=0;exitX=0;exitY=0.5;exitDx=0;exitDy=0;entryX=0;entryY=0.5;entryDx=0;entryDy=0;" parent="1" target="wf9zCFZ75Df-MfzutYrz-120" edge="1">
          <mxGeometry relative="1" as="geometry">
            <mxPoint x="110" y="437.5" as="sourcePoint" />
            <mxPoint x="305" y="445" as="targetPoint" />
            <Array as="points">
              <mxPoint x="90" y="437.5" />
            </Array>
          </mxGeometry>
        </mxCell>
        <mxCell id="wf9zCFZ75Df-MfzutYrz-122" value="Peso" style="text;html=1;align=center;verticalAlign=middle;resizable=0;points=[];autosize=1;strokeColor=none;fillColor=none;fontSize=9;" parent="1" vertex="1">
          <mxGeometry x="50" y="440" width="40" height="20" as="geometry" />
        </mxCell>
        <mxCell id="wf9zCFZ75Df-MfzutYrz-123" value="Medaglie" style="text;html=1;align=center;verticalAlign=middle;resizable=0;points=[];autosize=1;strokeColor=none;fillColor=none;fontSize=9;" parent="1" vertex="1">
          <mxGeometry x="160" y="472.5" width="60" height="20" as="geometry" />
        </mxCell>
        <mxCell id="wf9zCFZ75Df-MfzutYrz-124" value="Storico Incontri" style="text;html=1;align=center;verticalAlign=middle;resizable=0;points=[];autosize=1;strokeColor=none;fillColor=none;fontSize=9;" parent="1" vertex="1">
          <mxGeometry x="80" y="470.5" width="80" height="20" as="geometry" />
        </mxCell>
        <mxCell id="wf9zCFZ75Df-MfzutYrz-125" value="" style="ellipse;whiteSpace=wrap;html=1;aspect=fixed;movable=1;resizable=1;rotatable=1;deletable=1;editable=1;locked=0;connectable=1;" parent="1" vertex="1">
          <mxGeometry x="85" y="445" width="10" height="10" as="geometry" />
        </mxCell>
        <mxCell id="wf9zCFZ75Df-MfzutYrz-126" value="" style="endArrow=none;html=1;rounded=0;entryX=0;entryY=0.5;entryDx=0;entryDy=0;exitX=0;exitY=0.75;exitDx=0;exitDy=0;" parent="1" source="wf9zCFZ75Df-MfzutYrz-7" target="wf9zCFZ75Df-MfzutYrz-125" edge="1">
          <mxGeometry relative="1" as="geometry">
            <mxPoint x="110" y="482.5" as="sourcePoint" />
            <mxPoint x="360" y="477.5" as="targetPoint" />
          </mxGeometry>
        </mxCell>
        <mxCell id="wf9zCFZ75Df-MfzutYrz-127" value="" style="ellipse;whiteSpace=wrap;html=1;aspect=fixed;movable=1;resizable=1;rotatable=1;deletable=1;editable=1;locked=0;connectable=1;" parent="1" vertex="1">
          <mxGeometry x="120" y="467.5" width="10" height="10" as="geometry" />
        </mxCell>
        <mxCell id="wf9zCFZ75Df-MfzutYrz-128" value="" style="endArrow=none;html=1;rounded=0;exitX=0.25;exitY=1;exitDx=0;exitDy=0;entryX=0;entryY=0.5;entryDx=0;entryDy=0;" parent="1" target="wf9zCFZ75Df-MfzutYrz-127" edge="1">
          <mxGeometry relative="1" as="geometry">
            <mxPoint x="140" y="455" as="sourcePoint" />
            <mxPoint x="285" y="477.5" as="targetPoint" />
          </mxGeometry>
        </mxCell>
        <mxCell id="wf9zCFZ75Df-MfzutYrz-129" value="" style="ellipse;whiteSpace=wrap;html=1;aspect=fixed;movable=1;resizable=1;rotatable=1;deletable=1;editable=1;locked=0;connectable=1;" parent="1" vertex="1">
          <mxGeometry x="185" y="467.5" width="10" height="10" as="geometry" />
        </mxCell>
        <mxCell id="wf9zCFZ75Df-MfzutYrz-130" value="" style="endArrow=none;html=1;rounded=0;exitX=0.75;exitY=1;exitDx=0;exitDy=0;entryX=0;entryY=0.5;entryDx=0;entryDy=0;" parent="1" source="wf9zCFZ75Df-MfzutYrz-7" target="wf9zCFZ75Df-MfzutYrz-129" edge="1">
          <mxGeometry relative="1" as="geometry">
            <mxPoint x="280" y="501.25" as="sourcePoint" />
            <mxPoint x="510" y="483.75" as="targetPoint" />
          </mxGeometry>
        </mxCell>
        <mxCell id="wf9zCFZ75Df-MfzutYrz-131" value="Età" style="text;html=1;align=center;verticalAlign=middle;resizable=0;points=[];autosize=1;strokeColor=none;fillColor=none;fontSize=9;" parent="1" vertex="1">
          <mxGeometry x="115" y="192.5" width="40" height="20" as="geometry" />
        </mxCell>
        <mxCell id="wf9zCFZ75Df-MfzutYrz-132" value="" style="ellipse;whiteSpace=wrap;html=1;aspect=fixed;movable=1;resizable=1;rotatable=1;deletable=1;editable=1;locked=0;connectable=1;" parent="1" vertex="1">
          <mxGeometry x="130" y="212.5" width="10" height="10" as="geometry" />
        </mxCell>
        <mxCell id="wf9zCFZ75Df-MfzutYrz-133" value="" style="endArrow=none;html=1;rounded=0;exitX=0;exitY=0;exitDx=0;exitDy=0;entryX=0;entryY=0.5;entryDx=0;entryDy=0;" parent="1" target="wf9zCFZ75Df-MfzutYrz-132" edge="1">
          <mxGeometry relative="1" as="geometry">
            <mxPoint x="130" y="245" as="sourcePoint" />
            <mxPoint x="360" y="227.5" as="targetPoint" />
          </mxGeometry>
        </mxCell>
        <mxCell id="wf9zCFZ75Df-MfzutYrz-134" value="1,N" style="text;html=1;align=center;verticalAlign=middle;resizable=0;points=[];autosize=1;strokeColor=none;fillColor=none;fontSize=9;" parent="1" vertex="1">
          <mxGeometry x="370" y="415" width="40" height="20" as="geometry" />
        </mxCell>
        <mxCell id="wf9zCFZ75Df-MfzutYrz-135" value="1,1" style="text;html=1;align=center;verticalAlign=middle;resizable=0;points=[];autosize=1;strokeColor=none;fillColor=none;fontSize=9;" parent="1" vertex="1">
          <mxGeometry x="285" y="415" width="40" height="20" as="geometry" />
        </mxCell>
        <mxCell id="wf9zCFZ75Df-MfzutYrz-136" value="" style="ellipse;whiteSpace=wrap;html=1;aspect=fixed;movable=1;resizable=1;rotatable=1;deletable=1;editable=1;locked=0;connectable=1;labelBackgroundColor=none;" parent="1" vertex="1">
          <mxGeometry x="625" y="445" width="10" height="10" as="geometry" />
        </mxCell>
        <mxCell id="wf9zCFZ75Df-MfzutYrz-137" value="" style="endArrow=none;html=1;rounded=0;exitX=0;exitY=1;exitDx=0;exitDy=0;entryX=0;entryY=0.5;entryDx=0;entryDy=0;labelBackgroundColor=none;fontColor=default;" parent="1" target="wf9zCFZ75Df-MfzutYrz-136" edge="1">
          <mxGeometry relative="1" as="geometry">
            <mxPoint x="625" y="412.5" as="sourcePoint" />
            <mxPoint x="845" y="437" as="targetPoint" />
          </mxGeometry>
        </mxCell>
        <mxCell id="wf9zCFZ75Df-MfzutYrz-138" value="CoachAngoloB" style="text;html=1;align=center;verticalAlign=middle;resizable=0;points=[];autosize=1;strokeColor=none;fillColor=none;fontSize=9;" parent="1" vertex="1">
          <mxGeometry x="625" y="440" width="80" height="20" as="geometry" />
        </mxCell>
        <mxCell id="Lh4CT_2H32S4O8EdV3Yy-3" value="" style="endArrow=none;html=1;rounded=0;labelBackgroundColor=none;fontColor=default;" edge="1" parent="1" target="Lh4CT_2H32S4O8EdV3Yy-1">
          <mxGeometry relative="1" as="geometry">
            <mxPoint x="330" y="370" as="sourcePoint" />
            <mxPoint x="330" y="305" as="targetPoint" />
          </mxGeometry>
        </mxCell>
        <mxCell id="Lh4CT_2H32S4O8EdV3Yy-1" value="" style="ellipse;whiteSpace=wrap;html=1;aspect=fixed;movable=1;resizable=1;rotatable=1;deletable=1;editable=1;locked=0;connectable=1;labelBackgroundColor=none;" vertex="1" parent="1">
          <mxGeometry x="310" y="320" width="10" height="10" as="geometry" />
        </mxCell>
        <mxCell id="Lh4CT_2H32S4O8EdV3Yy-4" value="Password" style="text;html=1;align=center;verticalAlign=middle;resizable=0;points=[];autosize=1;strokeColor=none;fillColor=none;fontSize=9;" vertex="1" parent="1">
          <mxGeometry x="275" y="302.5" width="60" height="20" as="geometry" />
        </mxCell>
        <mxCell id="Lh4CT_2H32S4O8EdV3Yy-5" value="" style="ellipse;whiteSpace=wrap;html=1;aspect=fixed;movable=1;resizable=1;rotatable=1;deletable=1;editable=1;locked=0;connectable=1;labelBackgroundColor=none;" vertex="1" parent="1">
          <mxGeometry x="700" y="340" width="10" height="10" as="geometry" />
        </mxCell>
        <mxCell id="Lh4CT_2H32S4O8EdV3Yy-6" value="" style="endArrow=none;html=1;rounded=0;exitX=0;exitY=0;exitDx=0;exitDy=0;entryX=0;entryY=0.5;entryDx=0;entryDy=0;labelBackgroundColor=none;fontColor=default;" edge="1" parent="1" target="Lh4CT_2H32S4O8EdV3Yy-5">
          <mxGeometry relative="1" as="geometry">
            <mxPoint x="700" y="372.5" as="sourcePoint" />
            <mxPoint x="930" y="355" as="targetPoint" />
          </mxGeometry>
        </mxCell>
        <mxCell id="Lh4CT_2H32S4O8EdV3Yy-7" value="Data" style="text;html=1;align=center;verticalAlign=middle;resizable=0;points=[];autosize=1;strokeColor=none;fillColor=none;fontSize=9;rotation=-90;" vertex="1" parent="1">
          <mxGeometry x="685" y="320" width="40" height="20" as="geometry" />
        </mxCell>
      </root>
    </mxGraphModel>
  </diagram>
</mxfile>
